<svg xmlns="http://www.w3.org/2000/svg" viewBox="0 0 245 240"><defs><style>.a{fill:#5865F2;}</style></defs><path class="a" d="M104.14,81.95c-3.06,0-5.54,2.75-5.54,6.11s2.48,6.11,5.54,6.11c3.06,0,5.54-2.75,5.54-6.11.08-3.36-2.48-6.11-5.54-6.11ZM142.76,81.95c-3.06,0-5.54,2.75-5.54,6.11s2.48,6.11,5.54,6.11c3.06,0,5.54-2.75,5.54-6.11s-2.48-6.11-5.54-6.11Z"/><path class="a" d="M189.44,0H55.06C24.82,0,0,24.6,0,55.06V178.94C0,209.18,24.82,234,55.06,234H162.81l-7.61-26.62,18.38,17.06,17.38,16.17L245,240V55.06C245,24.6,220.18,0,189.94,0ZM163.55,152.62s-15.27-18.38-15.27-18.38c15.27-4.3,21.38-14,21.38-14,0,.08-4.3-8.39-17.54-14.58,3.68-2.14,7-5.54,7-5.54-14.08,6.11-27.89,9.17-39.73,2.75-4.3-2.14-8.23-5.2-11.53-8.63-2.48-2.14-3.82-3.68-3.82-3.68,0,0,5.54,9.41,20.06,14.42-12.87,5.62-17.3,14.58-17.3,14.58,0,0,6.27,9.41,21.62,14,0,0-15.19,18.38-15.19,18.38,0,0-1.87,6.88,5.46,6.88h41.84c3.68,0,5.54-2.14,5.54-2.14l1.19-8.39Z"/></svg>
